<svg width="111" height="40" viewBox="0 0 111 40" fill="none" xmlns="http://www.w3.org/2000/svg">
<g clip-path="url(#clip0_76_485)">
<path d="M12.1958 5H0V34.1667L12.1958 5Z" fill="#FA0C00"/>
<path d="M20.7769 5H32.9568V34.1667L20.7769 5Z" fill="#FA0C00"/>
<path d="M16.4865 15.7498L24.2489 34.1667H19.156L16.8361 28.3032H11.1553L16.4865 15.7498Z" fill="#FA0C00"/>
<path d="M52.8529 23.5481L54.291 27.6717C54.3386 27.775 54.4101 27.8226 54.5373 27.8226H57.3022C57.4531 27.8226 57.477 27.7511 57.4531 27.6002L51.7406 11.7337C51.7167 11.6066 51.6929 11.5827 51.5658 11.5827H48.1335C48.0381 11.5827 47.9825 11.6542 47.9825 11.7575C47.9348 12.5918 47.8633 12.846 47.76 13.0923L42.6672 27.5763C42.6434 27.7511 42.699 27.8226 42.842 27.8226H45.3129C45.4639 27.8226 45.5354 27.775 45.591 27.624L46.9496 23.5481H52.8529ZM47.7362 20.8547C48.4831 18.5983 49.4683 15.7063 49.8655 14.0537H49.8894C50.382 15.7857 51.5419 19.218 52.0663 20.8547H47.7362Z" fill="#FA0C00"/>
<path d="M64.7973 28.0689C66.283 28.0689 67.8641 27.7988 69.469 27.1075C69.5961 27.0599 69.62 27.0043 69.62 26.8851C69.5723 26.4402 69.5167 25.7966 69.5167 25.304V10.3671C69.5167 10.2718 69.5167 10.2241 69.3975 10.2241H66.7041C66.6008 10.2241 66.5531 10.2718 66.5531 10.3989V15.4599C66.132 15.4123 65.8381 15.3884 65.4885 15.3884C61.1425 15.3884 58.4729 18.2566 58.4729 21.8399C58.4729 25.9952 61.214 28.0689 64.7973 28.0689ZM66.5531 25.304C66.1082 25.447 65.6156 25.5026 65.1151 25.5026C63.1447 25.5026 61.5318 24.3903 61.5318 21.6889C61.5318 19.2975 63.1923 17.8832 65.3931 17.8832C65.8381 17.8832 66.2274 17.9309 66.5531 18.058V25.304Z" fill="#FA0C00"/>
<path d="M78.2123 15.3885C74.502 15.3885 72.2058 18.2328 72.2058 21.7446C72.2058 24.8829 74.0332 28.0689 78.1567 28.0689C81.6447 28.0689 84.0918 25.5026 84.0918 21.6651C84.0918 18.2805 82.0181 15.3885 78.2123 15.3885ZM78.0614 17.8832C80.1589 17.8832 81.0488 19.6868 81.0488 21.7446C81.0488 24.287 79.7378 25.5503 78.2123 25.5503C76.3293 25.5503 75.217 23.9692 75.217 21.689C75.217 19.3451 76.4009 17.8832 78.0614 17.8832Z" fill="#FA0C00"/>
<path d="M86.8765 10.2241C86.7732 10.2241 86.7017 10.2718 86.7017 10.3989V27.3062C86.7017 27.3777 86.7732 27.5048 86.8765 27.5286C88.0603 27.8941 89.2997 28.0689 90.5789 28.0689C94.2416 28.0689 97.801 25.7966 97.801 21.2202C97.801 17.9071 95.5287 15.3884 91.9693 15.3884C91.1509 15.3884 90.3882 15.5156 89.7208 15.738L89.689 10.4227C89.689 10.2479 89.6414 10.2241 89.4666 10.2241H86.8765ZM94.758 21.5221C94.758 24.2632 92.883 25.5503 90.857 25.5503C90.4359 25.5503 90.0625 25.5265 89.7208 25.4232V18.209C90.1101 18.058 90.5789 17.9309 91.4449 17.9309C93.3994 17.9309 94.758 19.1703 94.758 21.5221Z" fill="#FA0C00"/>
<path d="M107.853 22.412C109.061 22.412 110.054 22.3881 110.395 22.3087C110.522 22.2849 110.57 22.2372 110.594 22.1339C110.665 21.8638 110.697 21.2997 110.697 20.6084C110.697 18.2567 109.283 15.3885 105.628 15.3885C101.894 15.3885 99.8203 18.4315 99.8203 21.8638C99.8203 24.9068 101.425 28.0689 105.922 28.0689C107.607 28.0689 108.695 27.7988 109.633 27.3539C109.728 27.3062 109.776 27.2267 109.776 27.0837V25.0259C109.776 24.9068 109.704 24.8829 109.633 24.9306C108.695 25.3279 107.678 25.5265 106.566 25.5265C104.047 25.5265 102.903 24.1361 102.832 22.412H107.853ZM102.832 20.2827C103.03 19.075 103.793 17.7641 105.501 17.7641C107.384 17.7641 107.877 19.3451 107.877 20.0602C107.877 20.084 107.877 20.1873 107.877 20.2588C107.773 20.2827 107.456 20.2827 106.518 20.2827H102.832Z" fill="#FA0C00"/>
</g>
<defs>
<clipPath id="clip0_76_485">
<rect width="110.833" height="40" fill="white"/>
</clipPath>
</defs>
</svg>
