<svg width="93" height="40" viewBox="0 0 93 40" fill="none" xmlns="http://www.w3.org/2000/svg">
<g clip-path="url(#clip0_76_507)">
<path fill-rule="evenodd" clip-rule="evenodd" d="M57.4458 31.5057C52.1428 35.4144 44.4565 37.4999 37.8387 37.4999C28.5595 37.4999 20.2058 34.0678 13.8859 28.3597C13.3894 27.9108 13.8343 27.2991 14.4301 27.6487C21.2505 31.6169 29.6836 34.0043 38.3948 34.0043C44.2698 34.0043 50.7326 32.7888 56.6752 30.2664C57.5729 29.885 58.3236 30.8543 57.4458 31.5057Z" fill="#FF9900"/>
<path fill-rule="evenodd" clip-rule="evenodd" d="M59.6504 28.9834C58.9752 28.1174 55.1697 28.5742 53.4617 28.7768C52.9413 28.8404 52.8619 28.3875 53.3306 28.0618C56.3614 25.9287 61.3347 26.5444 61.9146 27.2594C62.4946 27.9784 61.7637 32.9636 58.9156 35.343C58.4786 35.7084 58.0615 35.5138 58.2562 35.0292C58.8957 33.4323 60.3297 29.8533 59.6504 28.9834Z" fill="#FF9900"/>
<path fill-rule="evenodd" clip-rule="evenodd" d="M53.581 13.003V10.9295C53.581 10.6157 53.8193 10.4052 54.1053 10.4052H63.3885C63.6864 10.4052 63.9248 10.6197 63.9248 10.9295V12.7051C63.9208 13.003 63.6705 13.3923 63.2257 14.008L58.4152 20.8761C60.2028 20.8324 62.0896 21.0985 63.7103 22.0121C64.0757 22.2187 64.175 22.5206 64.2028 22.8185V25.031C64.2028 25.3329 63.8692 25.6865 63.5196 25.5037C60.6635 24.0062 56.87 23.8433 53.7121 25.5196C53.3903 25.6944 53.0527 25.3449 53.0527 25.043V22.9416C53.0527 22.604 53.0567 22.028 53.3943 21.5156L58.9674 13.5234H54.1173C53.8193 13.5234 53.581 13.3129 53.581 13.003Z" fill="black"/>
<path fill-rule="evenodd" clip-rule="evenodd" d="M19.7174 25.9407H16.8932C16.623 25.9209 16.4085 25.7183 16.3887 25.4601V10.9653C16.3887 10.6753 16.631 10.4449 16.9329 10.4449H19.5665C19.8406 10.4568 20.059 10.6674 20.0789 10.9295V12.8243H20.1305C20.8177 10.9931 22.1087 10.1391 23.8486 10.1391C25.6162 10.1391 26.7205 10.9931 27.515 12.8243C28.1982 10.9931 29.7514 10.1391 31.4157 10.1391C32.5995 10.1391 33.8944 10.6276 34.6849 11.724C35.5787 12.9435 35.396 14.7151 35.396 16.2683L35.392 25.4164C35.392 25.7064 35.1497 25.9407 34.8478 25.9407H32.0275C31.7454 25.9209 31.519 25.6944 31.519 25.4164V17.734C31.519 17.1223 31.5746 15.5969 31.4396 15.017C31.2291 14.0438 30.5975 13.7697 29.7792 13.7697C29.0959 13.7697 28.3809 14.2265 28.091 14.9574C27.801 15.6883 27.8288 16.9118 27.8288 17.734V25.4164C27.8288 25.7064 27.5865 25.9407 27.2846 25.9407H24.4643C24.1783 25.9209 23.9558 25.6944 23.9558 25.4164L23.9519 17.734C23.9519 16.1173 24.218 13.7379 22.212 13.7379C20.1822 13.7379 20.2616 16.0577 20.2616 17.734V25.4164C20.2616 25.7064 20.0193 25.9407 19.7174 25.9407Z" fill="black"/>
<path fill-rule="evenodd" clip-rule="evenodd" d="M71.9169 10.1391C76.1076 10.1391 78.3758 13.7379 78.3758 18.314C78.3758 22.7351 75.8693 26.2426 71.9169 26.2426C67.8016 26.2426 65.5612 22.6437 65.5612 18.1591C65.5612 13.6466 67.8294 10.1391 71.9169 10.1391ZM71.9407 13.0984C69.8592 13.0984 69.7281 15.9346 69.7281 17.7022C69.7281 19.4739 69.7003 23.2555 71.9169 23.2555C74.1056 23.2555 74.2089 20.2048 74.2089 18.3457C74.2089 17.1223 74.1572 15.6605 73.7878 14.5006C73.47 13.4916 72.8384 13.0984 71.9407 13.0984Z" fill="black"/>
<path fill-rule="evenodd" clip-rule="evenodd" d="M83.8099 25.9407H80.9976C80.7155 25.9209 80.4891 25.6944 80.4891 25.4164L80.4851 10.9176C80.509 10.6515 80.7433 10.4449 81.0293 10.4449H83.6471C83.8933 10.4568 84.0959 10.6237 84.1515 10.8501V13.0666H84.2032C84.9937 11.0845 86.1019 10.1391 88.0523 10.1391C89.3195 10.1391 90.5548 10.5959 91.3493 11.8471C92.0881 13.007 92.0881 14.9574 92.0881 16.3596V25.4839C92.0563 25.7381 91.822 25.9407 91.5439 25.9407H88.7117C88.4535 25.9209 88.239 25.7302 88.2112 25.4839V17.6109C88.2112 16.026 88.3939 13.7061 86.4435 13.7061C85.7563 13.7061 85.1247 14.1669 84.8109 14.866C84.4137 15.7519 84.3621 16.6337 84.3621 17.6109V25.4164C84.3581 25.7064 84.1118 25.9407 83.8099 25.9407Z" fill="black"/>
<path fill-rule="evenodd" clip-rule="evenodd" d="M46.1807 19.017C46.1807 20.1174 46.2085 21.0349 45.6524 22.0121C45.2035 22.8066 44.4885 23.2952 43.698 23.2952C42.6136 23.2952 41.978 22.4689 41.978 21.2495C41.978 18.8423 44.135 18.4053 46.1807 18.4053V19.017ZM49.0288 25.901C48.8421 26.0678 48.572 26.0797 48.3615 25.9685C47.424 25.1899 47.2532 24.8285 46.7408 24.0857C45.1916 25.6666 44.0913 26.1393 42.0853 26.1393C39.7059 26.1393 37.8588 24.6735 37.8588 21.738C37.8588 19.446 39.0982 17.8849 40.8698 17.1223C42.4031 16.447 44.5441 16.3278 46.1807 16.1411V15.7757C46.1807 15.1044 46.2323 14.3099 45.8351 13.73C45.4935 13.2096 44.8341 12.9951 44.2502 12.9951C43.1737 12.9951 42.2164 13.5472 41.982 14.6912C41.9343 14.9455 41.7477 15.1957 41.4895 15.2076L38.7526 14.9137C38.5222 14.8621 38.264 14.6754 38.3315 14.3218C38.9591 11.001 41.9622 10 44.6474 10C46.0218 10 47.8173 10.3654 48.9017 11.4062C50.2761 12.6892 50.145 14.4013 50.145 16.2643V20.6655C50.145 21.9883 50.6932 22.5682 51.2096 23.2833C51.3883 23.5375 51.4281 23.8433 51.1977 24.034C50.6217 24.5147 49.5968 25.4084 49.0328 25.9089L49.0288 25.901Z" fill="black"/>
<path fill-rule="evenodd" clip-rule="evenodd" d="M9.15514 19.017C9.15514 20.1173 9.18294 21.0349 8.62683 22.0121C8.17796 22.8066 7.46693 23.2952 6.67247 23.2952C5.58805 23.2952 4.95646 22.4689 4.95646 21.2494C4.95646 18.8423 7.1134 18.4053 9.15514 18.4053V19.017ZM12.0033 25.901C11.8166 26.0678 11.5464 26.0797 11.3359 25.9685C10.3985 25.1899 10.2316 24.8285 9.71523 24.0856C8.16604 25.6666 7.0697 26.1393 5.05974 26.1393C2.68432 26.1393 0.833252 24.6735 0.833252 21.738C0.833252 19.446 2.07657 17.8849 3.84422 17.1223C5.37752 16.447 7.51857 16.3278 9.15514 16.1411V15.7757C9.15514 15.1044 9.20678 14.3099 8.81353 13.73C8.46794 13.2096 7.80854 12.9951 7.22859 12.9951C6.15211 12.9951 5.19082 13.5472 4.95646 14.6912C4.90879 14.9455 4.72209 15.1957 4.46787 15.2076L1.72701 14.9137C1.49662 14.8621 1.24239 14.6754 1.30595 14.3218C1.93754 11.001 4.9366 10 7.62185 10C8.99625 10 10.7917 10.3654 11.8761 11.4062C13.2505 12.6892 13.1195 14.4013 13.1195 16.2643V20.6655C13.1195 21.9883 13.6676 22.5682 14.184 23.2832C14.3667 23.5375 14.4065 23.8433 14.1761 24.034C13.6001 24.5146 12.5753 25.4084 12.0112 25.9089L12.0033 25.901Z" fill="black"/>
</g>
<defs>
<clipPath id="clip0_76_507">
<rect width="91.6667" height="40" fill="white" transform="translate(0.833252)"/>
</clipPath>
</defs>
</svg>
