<svg width="114" height="40" viewBox="0 0 114 40" fill="none" xmlns="http://www.w3.org/2000/svg">
<g clip-path="url(#clip0_76_529)">
<path fill-rule="evenodd" clip-rule="evenodd" d="M15.1915 4.16666C7.16644 4.16666 0.666504 10.6666 0.666504 18.6917C0.666504 25.119 4.82428 30.5477 10.598 32.4722C11.3242 32.5993 11.5966 32.1636 11.5966 31.7823C11.5966 31.4373 11.5784 30.2935 11.5784 29.077C7.929 29.7488 6.98488 28.1874 6.69438 27.3703C6.53097 26.9527 5.82288 25.6637 5.20557 25.3187C4.69719 25.0463 3.97094 24.3746 5.18741 24.3564C6.33125 24.3382 7.14828 25.4095 7.42063 25.8452C8.72788 28.0421 10.8158 27.4248 11.651 27.0435C11.7781 26.0994 12.1594 25.4639 12.577 25.1008C9.34519 24.7377 5.96813 23.4849 5.96813 17.9291C5.96813 16.3495 6.53097 15.0422 7.45694 14.0255C7.31169 13.6624 6.80331 12.1736 7.60219 10.1764C7.60219 10.1764 8.81866 9.79509 11.5966 11.6652C12.7586 11.3384 13.9932 11.175 15.2278 11.175C16.4624 11.175 17.6971 11.3384 18.8591 11.6652C21.637 9.77694 22.8534 10.1764 22.8534 10.1764C23.6523 12.1736 23.1439 13.6624 22.9987 14.0255C23.9247 15.0422 24.4875 16.3313 24.4875 17.9291C24.4875 23.5031 21.0923 24.7377 17.8605 25.1008C18.387 25.5547 18.8409 26.4262 18.8409 27.7879C18.8409 29.7306 18.8228 31.2921 18.8228 31.7823C18.8228 32.1636 19.0951 32.6175 19.8213 32.4722C22.7048 31.4988 25.2104 29.6456 26.9855 27.1736C28.7606 24.7015 29.7157 21.735 29.7165 18.6917C29.7165 10.6666 23.2166 4.16666 15.1915 4.16666Z" fill="#24292E"/>
<path d="M68.3796 25.7025H68.3457C68.361 25.7025 68.3711 25.7194 68.3864 25.7211H68.3966L68.3796 25.7042V25.7025ZM68.3864 25.7211C68.2288 25.7228 67.8323 25.8059 67.4137 25.8059C66.0919 25.8059 65.6344 25.1958 65.6344 24.3994V19.0936H68.3288C68.4813 19.0936 68.5999 18.9581 68.5999 18.7717V15.8909C68.5999 15.7384 68.4643 15.6028 68.3288 15.6028H65.6344V12.0272C65.6344 11.8917 65.5497 11.8069 65.3972 11.8069H61.7369C61.5843 11.8069 61.4996 11.8917 61.4996 12.0272V15.7045C61.4996 15.7045 59.6525 16.162 59.5339 16.1789C59.3983 16.2128 59.3136 16.3315 59.3136 16.467V18.7717C59.3136 18.9581 59.4492 19.0936 59.6017 19.0936H61.4827V24.6519C61.4827 28.7866 64.3635 29.2103 66.3292 29.2103C67.2273 29.2103 68.3118 28.9222 68.4813 28.8375C68.583 28.8036 68.6338 28.685 68.6338 28.5663V26.0245C68.6361 25.9524 68.6124 25.8819 68.567 25.8258C68.5215 25.7698 68.4574 25.732 68.3864 25.7194V25.7211ZM108.541 21.9914C108.541 18.9242 107.304 18.5175 105.999 18.653C104.983 18.7208 104.169 19.2292 104.169 19.2292V25.1941C104.169 25.1941 105 25.7703 106.237 25.8042C107.982 25.855 108.541 25.228 108.541 21.9914ZM112.659 21.7202C112.659 27.5327 110.778 29.1933 107.491 29.1933C104.711 29.1933 103.22 27.7868 103.22 27.7868C103.22 27.7868 103.152 28.5663 103.068 28.668C103.017 28.7697 102.932 28.8036 102.83 28.8036H100.323C100.153 28.8036 100.001 28.668 100.001 28.5155L100.034 9.68869C100.034 9.53618 100.17 9.40062 100.323 9.40062H103.932C104.084 9.40062 104.22 9.53618 104.22 9.68869V16.0773C104.22 16.0773 105.61 15.1791 107.643 15.1791L107.626 15.1453C109.66 15.1453 112.659 15.9078 112.659 21.7202ZM97.8823 15.6028H94.3237C94.1373 15.6028 94.0356 15.7384 94.0356 15.9248V25.1433C94.0356 25.1433 93.1036 25.8042 91.8326 25.8042C90.5617 25.8042 90.1889 25.228 90.1889 23.9571V15.9078C90.1889 15.7553 90.0533 15.6197 89.9008 15.6197H86.2744C86.1219 15.6197 85.9863 15.7553 85.9863 15.9078V24.5671C85.9863 28.2952 88.0707 29.2272 90.9345 29.2272C93.29 29.2272 95.2049 27.9224 95.2049 27.9224C95.2049 27.9224 95.2896 28.5833 95.3404 28.685C95.3743 28.7697 95.4929 28.8375 95.6116 28.8375H97.8823C98.0687 28.8375 98.1704 28.7019 98.1704 28.5494L98.2043 15.8909C98.2043 15.7384 98.0687 15.6028 97.8823 15.6028ZM57.7207 15.5858H54.1112C53.9587 15.5858 53.8231 15.7384 53.8231 15.9248V28.363C53.8231 28.7019 54.0434 28.8205 54.3315 28.8205H57.5851C57.924 28.8205 58.0088 28.668 58.0088 28.363V15.8739C58.0088 15.7214 57.8732 15.5858 57.7207 15.5858ZM55.9414 9.85815C54.6366 9.85815 53.6029 10.8918 53.6029 12.1967C53.6029 13.5015 54.6366 14.5352 55.9414 14.5352C57.2123 14.5352 58.246 13.5015 58.246 12.1967C58.246 10.8918 57.2123 9.85815 55.9414 9.85815ZM83.8851 9.43451H80.3095C80.157 9.43451 80.0214 9.57007 80.0214 9.72259V16.6534H74.4123V9.72259C74.4123 9.57007 74.2768 9.43451 74.1243 9.43451H70.5148C70.3623 9.43451 70.2267 9.57007 70.2267 9.72259V28.5494C70.2267 28.7019 70.3792 28.8375 70.5148 28.8375H74.1243C74.2768 28.8375 74.4123 28.7019 74.4123 28.5494V20.5001H80.0214L79.9875 28.5494C79.9875 28.7019 80.1231 28.8375 80.2756 28.8375H83.8851C84.0376 28.8375 84.1731 28.7019 84.1731 28.5494V9.72259C84.1731 9.57007 84.0376 9.43451 83.8851 9.43451ZM51.9083 17.7719V27.4988C51.9083 27.5665 51.8913 27.6852 51.8066 27.7191C51.8066 27.7191 49.6884 29.2272 46.1975 29.2272C41.978 29.2272 36.979 27.9055 36.979 19.1953C36.979 10.4851 41.351 8.68889 45.6214 8.70584C49.3156 8.70584 50.8068 9.53618 51.044 9.68869C51.1118 9.77342 51.1457 9.84121 51.1457 9.92594L50.434 12.9423C50.434 13.0948 50.2815 13.2812 50.0951 13.2304C49.485 13.044 48.5699 12.6712 46.4178 12.6712C43.9268 12.6712 41.2493 13.3829 41.2493 18.992C41.2493 24.601 43.7912 25.2619 45.6214 25.2619C47.1804 25.2619 47.7396 25.0755 47.7396 25.0755V21.178H45.2486C45.0622 21.178 44.9266 21.0424 44.9266 20.8899V17.7719C44.9266 17.6193 45.0622 17.4838 45.2486 17.4838H51.5863C51.7727 17.4838 51.9083 17.6193 51.9083 17.7719Z" fill="#24292E"/>
</g>
<defs>
<clipPath id="clip0_76_529">
<rect width="112.5" height="40" fill="white" transform="translate(0.666504)"/>
</clipPath>
</defs>
</svg>
