<svg width="103" height="30" viewBox="0 0 103 30" fill="none" xmlns="http://www.w3.org/2000/svg">
<g clip-path="url(#clip0_89_1921)">
<path d="M28.3823 8.75819H33.1844C36.2458 8.75819 38.7748 10.5154 38.7748 14.5276V15.3707C38.7748 19.4133 36.4096 21.2315 33.2765 21.2315H28.3823V8.75819ZM31.0649 11.0233V18.9563H33.1229C34.8636 18.9563 36.0308 17.8288 36.0308 15.3199V14.6597C36.0308 12.1508 34.8021 11.0233 33.0308 11.0233H31.0649ZM40.198 11.1452H42.3482L42.6963 13.4916C43.1059 11.8968 44.1503 11.0436 46.0445 11.0436H46.71V13.7353H45.6042C43.4233 13.7353 42.8909 14.487 42.8909 16.62V21.262H40.239V11.1452H40.198ZM47.2424 16.4067V16.1223C47.2424 12.7399 49.4233 10.8912 52.3926 10.8912C55.4233 10.8912 57.5428 12.7399 57.5428 16.1223V16.4067C57.5428 19.7282 55.4848 21.5159 52.3926 21.5159C49.1059 21.4855 47.2424 19.7384 47.2424 16.4067ZM54.8295 16.3763V16.1223C54.8295 14.2432 53.8773 13.1157 52.3619 13.1157C50.8773 13.1157 49.8943 14.1518 49.8943 16.1223V16.3763C49.8943 18.1944 50.8465 19.2305 52.3619 19.2305C53.8773 19.2 54.8295 18.1944 54.8295 16.3763ZM58.9353 11.1452H61.1469L61.4029 13.0548C61.9353 11.7749 63.0718 10.8912 64.751 10.8912C67.3415 10.8912 69.0514 12.7399 69.0514 16.163V16.4474C69.0514 19.7688 67.1572 21.5261 64.751 21.5261C63.1435 21.5261 62.0377 20.8049 61.495 19.647V24.7562H58.9046L58.9353 11.1452ZM66.3585 16.3763V16.1528C66.3585 14.1416 65.3141 13.1462 63.9216 13.1462C62.437 13.1462 61.4541 14.2737 61.4541 16.1528V16.3458C61.4541 18.1335 62.4063 19.261 63.8909 19.261C65.4165 19.2305 66.3585 18.2655 66.3585 16.3763ZM72.9729 19.393L72.7476 21.2417H70.4746V7.76276H73.065V12.9329C73.6384 11.6124 74.7749 10.8912 76.3824 10.8912C78.8193 10.9217 80.6213 12.5875 80.6213 15.9395V16.2544C80.6213 19.6063 78.9114 21.5261 76.321 21.5261C74.6111 21.4855 73.5053 20.7033 72.9729 19.393ZM77.8978 16.2544V16.0004C77.8978 14.1518 76.8841 13.1157 75.4609 13.1157C74.007 13.1157 72.9933 14.2737 72.9933 16.0309V16.2544C72.9933 18.1335 73.9763 19.2305 75.4302 19.2305C76.9865 19.2305 77.8978 18.2655 77.8978 16.2544ZM81.7579 16.4067V16.1223C81.7579 12.7399 83.9388 10.8912 86.9081 10.8912C89.9388 10.8912 92.0582 12.7399 92.0582 16.1223V16.4067C92.0582 19.7282 89.9695 21.5159 86.9081 21.5159C83.6214 21.4855 81.7579 19.7384 81.7579 16.4067ZM89.3654 16.3763V16.1223C89.3654 14.2432 88.4132 13.1157 86.8978 13.1157C85.4132 13.1157 84.4302 14.1518 84.4302 16.1223V16.3763C84.4302 18.1944 85.3825 19.2305 86.8978 19.2305C88.4234 19.2 89.3654 18.1944 89.3654 16.3763ZM95.5292 16.0004L91.9558 11.1452H95.0173L97.0753 14.1823L99.1641 11.1452H102.195L98.5702 15.97L102.389 21.2417H99.3893L97.0548 17.8897L94.7818 21.2417H91.6487L95.5292 16.0004Z" fill="black"/>
<path d="M11.8772 8.75825L5.93858 12.5165L11.8772 16.2748L5.93858 20.033L0 16.2544L5.93858 12.4962L0 8.75825L5.93858 5L11.8772 8.75825ZM5.90786 21.2417L11.8464 17.4835L17.785 21.2417L11.8464 25L5.90786 21.2417ZM11.8772 16.2544L17.8157 12.4962L11.8772 8.75825L17.785 5L23.7236 8.75825L17.785 12.5165L23.7236 16.2748L17.785 20.033L11.8772 16.2544Z" fill="#0061FF"/>
</g>
<defs>
<clipPath id="clip0_89_1921">
<rect width="102.692" height="30" fill="white"/>
</clipPath>
</defs>
</svg>
