<svg width="95" height="40" viewBox="0 0 95 40" fill="none" xmlns="http://www.w3.org/2000/svg">
<g clip-path="url(#clip0_76_519)">
<path d="M40.6981 21.3751C40.6981 25.8112 37.2278 29.08 32.9689 29.08C28.7101 29.08 25.2397 25.8112 25.2397 21.3751C25.2397 16.9078 28.7101 13.6703 32.9689 13.6703C37.2278 13.6703 40.6981 16.9078 40.6981 21.3751ZM37.3146 21.3751C37.3146 18.603 35.3033 16.7063 32.9689 16.7063C30.6345 16.7063 28.6232 18.603 28.6232 21.3751C28.6232 24.1194 30.6345 26.0439 32.9689 26.0439C35.3033 26.0439 37.3146 24.1159 37.3146 21.3751Z" fill="#EA4335"/>
<path d="M57.3724 21.3751C57.3724 25.8112 53.9021 29.08 49.6432 29.08C45.3844 29.08 41.9141 25.8112 41.9141 21.3751C41.9141 16.9113 45.3844 13.6703 49.6432 13.6703C53.9021 13.6703 57.3724 16.9078 57.3724 21.3751ZM53.989 21.3751C53.989 18.603 51.9776 16.7063 49.6432 16.7063C47.3089 16.7063 45.2975 18.603 45.2975 21.3751C45.2975 24.1194 47.3089 26.0439 49.6432 26.0439C51.9776 26.0439 53.989 24.1159 53.989 21.3751Z" fill="#FBBC05"/>
<path d="M73.3521 14.1357V27.9684C73.3521 33.6584 69.9964 35.9824 66.0294 35.9824C62.295 35.9824 60.0475 33.4848 59.1999 31.4422L62.1457 30.2159C62.6702 31.47 63.9555 32.9498 66.0259 32.9498C68.5652 32.9498 70.1388 31.3831 70.1388 28.4339V27.3257H70.0207C69.2635 28.2602 67.8045 29.0765 65.9633 29.0765C62.1109 29.0765 58.5815 25.7208 58.5815 21.4029C58.5815 17.0537 62.1109 13.6703 65.9633 13.6703C67.801 13.6703 69.26 14.4866 70.0207 15.3933H70.1388V14.1392H73.3521V14.1357ZM70.3785 21.4029C70.3785 18.6899 68.5687 16.7064 66.2656 16.7064C63.9312 16.7064 61.9754 18.6899 61.9754 21.4029C61.9754 24.0882 63.9312 26.0439 66.2656 26.0439C68.5687 26.0439 70.3785 24.0882 70.3785 21.4029Z" fill="#4285F4"/>
<path d="M78.6492 6.02798V28.6076H75.3491V6.02798H78.6492Z" fill="#34A853"/>
<path d="M91.5095 23.911L94.1357 25.6618C93.2881 26.9158 91.2455 29.0765 87.7161 29.0765C83.3391 29.0765 80.0703 25.693 80.0703 21.3716C80.0703 16.7897 83.3669 13.6668 87.3375 13.6668C91.3358 13.6668 93.2915 16.8488 93.9307 18.5683L94.2816 19.4437L83.9818 23.7095C84.7703 25.2553 85.9966 26.0439 87.7161 26.0439C89.4391 26.0439 90.6341 25.1963 91.5095 23.911ZM83.426 21.1389L90.311 18.28C89.9324 17.3177 88.793 16.6473 87.4521 16.6473C85.7326 16.6473 83.3391 18.1653 83.426 21.1389Z" fill="#EA4335"/>
<path d="M12.748 19.3706V16.1018H23.7633C23.871 16.6715 23.9266 17.3454 23.9266 18.0749C23.9266 20.5274 23.2562 23.56 21.0955 25.7207C18.9938 27.9092 16.3086 29.0764 12.7514 29.0764C6.15818 29.0764 0.614014 23.7059 0.614014 17.1127C0.614014 10.5194 6.15818 5.14893 12.7514 5.14893C16.3989 5.14893 18.9973 6.58013 20.9496 8.44555L18.643 10.7521C17.243 9.43906 15.3464 8.41776 12.748 8.41776C7.93329 8.41776 4.1677 12.298 4.1677 17.1127C4.1677 21.9273 7.93329 25.8076 12.748 25.8076C15.8709 25.8076 17.6495 24.5535 18.7889 23.4141C19.7129 22.4901 20.3208 21.17 20.5605 19.3671L12.748 19.3706Z" fill="#4285F4"/>
</g>
<defs>
<clipPath id="clip0_76_519">
<rect width="94.1667" height="40" fill="white" transform="translate(0.5)"/>
</clipPath>
</defs>
</svg>
