<svg width="112" height="40" viewBox="0 0 112 40" fill="none" xmlns="http://www.w3.org/2000/svg">
<g clip-path="url(#clip0_76_538)">
<path d="M15.4301 31.7219C13.7603 31.9663 12.061 32.0395 10.3033 32.2347L4.94182 19.1488V32.7963C3.27196 32.9427 1.74856 33.138 0.166504 33.3333V8.33334H4.61975L10.7134 22.5181V8.33334H15.4301V31.7219ZM24.6587 17.4886C26.4752 17.4886 29.2584 17.4154 30.9283 17.4154V21.3215C28.8481 21.3215 26.4166 21.3215 24.6587 21.3948V27.2054C27.4127 27.059 30.1666 26.8635 32.9497 26.7902V30.5498L19.9711 31.4045V8.33334H32.9497V12.2396H24.6587V17.4886ZM50.3813 12.2397H45.5181V30.2084C43.936 30.2084 42.354 30.2084 40.8308 30.2571V12.2397H35.9675V8.33334H50.3815L50.3813 12.2397ZM57.9984 17.2201H64.4145V21.1263H57.9984V29.9887H53.3985V8.33334H66.4946V12.2396H57.9984V17.2201ZM74.1117 26.5706C76.7778 26.6193 79.473 26.7905 82.0805 26.9124V30.7699C77.8911 30.55 73.7016 30.3305 69.4243 30.2571V8.33334H74.1117V26.5706ZM86.0355 31.0384C87.5297 31.1118 89.1117 31.185 90.6351 31.3313V8.33334H86.0355V31.0384ZM111.172 8.33334L105.225 20.223L111.172 33.3333C109.414 33.138 107.657 32.8695 105.899 32.6253L102.53 25.3989L99.1024 32.0395C97.4028 31.7952 95.7622 31.7219 94.0633 31.5266L100.098 20.0764L94.649 8.33334H99.6879L102.764 14.9007L106.045 8.33334H111.172V8.33334Z" fill="#D81F26"/>
</g>
<defs>
<clipPath id="clip0_76_538">
<rect width="111" height="40" fill="white" transform="translate(0.166504)"/>
</clipPath>
</defs>
</svg>
