<svg width="186" height="249" viewBox="0 0 186 249" fill="none" xmlns="http://www.w3.org/2000/svg">
<g clip-path="url(#clip0_13_4643)">
<path d="M185.8 93.5999C185.804 108.467 182.24 123.118 175.407 136.322C168.573 149.526 158.671 160.897 146.532 169.48C134.392 178.063 120.37 183.607 105.643 185.647C90.9162 187.686 75.9151 186.161 61.9 181.2V248.4H0V109.1H49.1C52.4209 118.505 58.6777 126.592 66.9466 132.169C75.2156 137.746 85.0586 140.516 95.0224 140.071C104.986 139.626 114.543 135.989 122.281 129.697C130.02 123.405 135.531 114.791 138 105.128C140.468 95.4643 139.765 85.2632 135.993 76.0303C132.22 66.7974 125.58 59.022 117.05 53.852C108.521 48.6821 98.5556 46.3915 88.625 47.3184C78.6944 48.2454 69.325 52.3407 61.9 58.9999C60.6335 60.1315 59.4316 61.3334 58.3 62.5999C54.2475 67.114 51.1216 72.3805 49.1 78.0999H0V0.69993H61.9V5.99993C73.4036 1.92576 85.5972 0.158049 97.7841 0.797778C109.971 1.43751 121.913 4.47214 132.926 9.72831C143.94 14.9845 153.811 22.3592 161.973 31.4311C170.136 40.503 176.432 51.0943 180.5 62.5999C182.286 67.6392 183.624 72.8259 184.5 78.0999C185.368 83.2209 185.803 88.4059 185.8 93.5999Z" fill="white"/>
<path d="M92.9001 117.4C88.1929 117.4 83.5914 116.004 79.6775 113.389C75.7636 110.774 72.7131 107.057 70.9118 102.708C69.1104 98.3589 68.6391 93.5735 69.5574 88.9568C70.4757 84.34 72.7425 80.0993 76.071 76.7708C79.3995 73.4423 83.6402 71.1756 88.257 70.2572C92.8737 69.3389 97.6591 69.8102 102.008 71.6116C106.357 73.413 110.074 76.4635 112.689 80.3774C115.304 84.2913 116.7 88.8927 116.7 93.5999C116.7 99.9121 114.193 105.966 109.729 110.429C105.266 114.892 99.2123 117.4 92.9001 117.4Z" fill="#006AFE"/>
</g>
<defs>
<clipPath id="clip0_13_4643">
<rect width="185.8" height="247.7" fill="white" transform="translate(0 0.699951)"/>
</clipPath>
</defs>
</svg>
