<svg width="186" height="248" viewBox="0 0 186 248" fill="none" xmlns="http://www.w3.org/2000/svg">
<path d="M185.8 92.9C185.804 107.767 182.24 122.418 175.407 135.622C168.573 148.826 158.671 160.197 146.532 168.78C134.392 177.363 120.37 182.907 105.643 184.947C90.9162 186.986 75.9151 185.461 61.9 180.5V247.7H0V108.4H49.1C52.4209 117.805 58.6777 125.892 66.9466 131.469C75.2156 137.046 85.0586 139.816 95.0224 139.371C104.986 138.926 114.543 135.289 122.281 128.997C130.02 122.705 135.531 114.091 138 104.428C140.468 94.7643 139.765 84.5632 135.993 75.3303C132.22 66.0974 125.58 58.3221 117.05 53.1521C108.521 47.9821 98.5556 45.6915 88.625 46.6185C78.6944 47.5454 69.325 51.6408 61.9 58.3C60.6335 59.4315 59.4316 60.6334 58.3 61.9C54.2475 66.4141 51.1216 71.6805 49.1 77.4H0V-2.09231e-05H61.9V5.29998C73.4036 1.22581 85.5972 -0.541902 97.7841 0.0978267C109.971 0.737555 121.913 3.77219 132.926 9.02836C143.94 14.2845 153.811 21.6592 161.973 30.7311C170.136 39.803 176.432 50.3943 180.5 61.9C182.286 66.9393 183.624 72.1259 184.5 77.4C185.368 82.521 185.803 87.706 185.8 92.9Z" fill="#020E33"/>
</svg>
